<?xml version="1.0" standalone="no"?>
<!DOCTYPE svg PUBLIC "-//W3C//DTD SVG 20010904//EN"
 "http://www.w3.org/TR/2001/REC-SVG-20010904/DTD/svg10.dtd">
<svg version="1.0" xmlns="http://www.w3.org/2000/svg"
 width="500.000000pt" height="500.000000pt" viewBox="0 0 500.000000 500.000000"
 preserveAspectRatio="xMidYMid meet">

<g transform="translate(0.000000,500.000000) scale(0.100000,-0.100000)"
fill="#000000" stroke="none">
<path d="M3459 4153 c-41 -54 -99 -129 -130 -168 -118 -149 -769 -995 -769
-1000 0 -3 80 -5 178 -5 97 0 208 -3 245 -7 l69 -6 -7 -101 c-4 -56 -18 -166
-31 -246 -134 -803 -582 -1339 -1344 -1608 -277 -98 -638 -168 -973 -188 -59
-4 -104 -10 -100 -14 4 -4 89 -17 188 -29 719 -88 1279 -15 1781 230 549 269
961 735 1227 1389 50 123 95 256 160 475 l24 80 248 -4 c210 -3 247 -2 239 10
-4 8 -85 120 -179 250 -93 130 -298 417 -455 637 -157 221 -288 401 -291 401
-3 1 -39 -43 -80 -96z"/>
</g>
</svg>
